<svg xmlns="http://www.w3.org/2000/svg" viewBox="0 0 57 77">
  <path d="M37.0911 30.4028C37.0911 30.4028 36.6527 28.1894 36.9937 26.6368C36.9937 26.6368 37.1074 25.3072 36.5552 24.5269L37.2454 23.8581C39.6001 22.5683 41.1997 21.2227 42.2715 19.9568C41.9954 20.6017 41.6787 21.2546 41.2971 21.9393C40.7368 22.9186 40.274 24.312 39.8437 27.3773C39.5595 29.3837 39.8193 31.7006 39.4702 32.3376L38.9911 33.8583C38.9911 33.8583 38.8774 32.9666 37.6514 32.1943C37.6514 32.1943 37.1967 31.7484 37.0993 30.4188M7.55192 19.917C7.55192 19.917 4.55578 18.1335 7.64124 11.8834C7.64124 11.8834 2.02246 17.5762 7.55192 19.917ZM47.1514 49.5991C48.2719 49.6389 49.6603 49.7902 51.203 50.1962C53.7283 50.873 55.6201 51.9638 56.8462 52.8237C54.1586 55.5307 51.0569 58.2617 47.468 60.8573C30.1001 73.4371 11.1408 75.9053 0.00878874 76.3034C-0.0318094 74.7509 0.0575055 72.8081 0.504085 70.6186C0.845109 68.9466 1.32417 67.4975 1.80323 66.3032C1.80323 66.3032 3.12673 60.7219 9.28953 57.2824C10.1746 56.7887 19.3903 55.0928 19.6339 52.9909C19.6339 52.9909 20.3809 51.5816 18.5865 50.5704C18.5865 50.5704 17.807 50.1405 16.5566 49.2965C16.378 49.1771 16.1912 49.0417 15.9963 48.9064C15.9963 48.9064 15.9801 48.8984 15.9557 48.8745C15.5741 48.6198 12.5374 46.4063 11.4006 40.6897L10.7348 39.1371C10.7348 39.1371 10.5643 38.9938 10.3207 38.747C9.57371 37.9906 8.12842 36.2788 8.39637 34.7023C8.39637 34.7023 8.575 33.2691 7.64124 31.3503C7.50321 31.0716 7.35705 30.793 7.1703 30.4904C7.1703 30.4904 6.04979 29.6067 6.61817 28.3885C5.64381 27.4251 4.96176 26.597 4.96176 25.1559C4.96176 24.4075 5.4733 23.6511 5.40022 22.9425C5.22159 20.9679 3.07801 19.3517 2.64767 17.3771C2.64767 17.3771 2.59083 17.0905 2.56647 16.5889C2.51775 15.6096 3.04553 13.6907 5.03484 11.4455C5.5139 10.912 7.1297 10.2591 7.78739 9.69384C8.60748 8.98523 8.75363 7.81482 9.8985 7.09028L10.4831 5.97561C10.4831 5.97561 12.4318 3.84978 12.5861 3.74627C13.5442 3.08543 19.5446 0.744619 24.3758 0.696848C26.8685 0.665 28.1839 2.0026 30.092 2.83065C32.0001 3.65073 33.2181 3.45964 35.451 4.60616C35.451 4.60616 37.424 5.44216 38.3578 6.13485C40.7856 7.93425 44.8454 12.0824 42.7586 18.6829C41.2809 20.9043 39.3403 21.995 37.4971 22.4966C37.3266 22.1861 37.0749 21.8199 36.677 21.3581C36.677 21.3581 35.5646 19.4711 32.2924 18.3405C32.2924 18.3405 29.8159 17.3293 29.0202 17.6637C29.0202 17.6637 26.4301 17.3134 25.748 16.979C25.748 16.979 18.9925 14.2958 16.9463 16.5013C16.9463 16.5013 13.6579 18.6908 15.5579 21.9154C15.5579 21.9154 16.8895 25.7929 15.3143 26.5572C15.3143 26.5572 13.5036 27.5445 16.4348 27.7834C16.4348 27.7834 18.9275 26.9076 21.404 28.4681C21.404 28.4681 22.9873 27.0429 25.4719 27.2738C25.4719 27.2738 28.2976 27.2897 31.8946 28.8582C31.8946 28.8582 34.6065 30.5302 32.1057 31.2946L30.9852 31.1752C30.9852 31.1752 29.4018 31.0557 28.939 32.2739C28.939 32.2739 26.5681 33.922 24.8792 32.3694L23.9861 31.1433C23.9861 31.1433 21.5258 28.4761 21.1604 31.6847L20.6895 36.223C20.6895 36.223 20.113 39.3202 22.8168 39.3361C22.8168 39.3361 26.7711 38.1339 23.8237 40.2199C23.8237 40.2199 22.9143 40.7693 22.6869 41.9875C22.6869 41.9875 22.2322 42.6483 21.8912 42.2024C21.8912 42.2024 19.9668 42.9668 21.4365 43.1897C21.4365 43.1897 23.4664 43.0942 23.913 43.2056C23.913 43.2056 24.9929 43.341 25.8942 43.0225C25.8942 43.0225 27.3395 42.3139 27.2258 43.3092C27.2258 43.3092 27.307 44.0894 25.3989 43.97C25.3989 43.97 20.8681 43.8585 23.4502 45.3076C23.4502 45.3076 26.0484 44.7662 24.0104 45.8649L21.5258 47.4095C21.5258 47.4095 17.9044 49.822 23.4339 49.9574C23.4339 49.9574 25.9104 50.6341 32.1382 47.1229C32.1382 47.1229 31.992 52.3221 34.4685 54.5594C34.4685 54.5594 42.9535 50.1723 39.9168 47.8236C39.9168 47.8236 43.8629 49.1771 44.7561 49.7344C44.886 49.83 45.292 50.1086 45.8847 50.1086C46.5667 50.1086 47.0214 49.7344 47.1351 49.6389L47.1514 49.5991Z" fill="#035096"/>
</svg>